<svg version="1" xmlns="http://www.w3.org/2000/svg" width="1365.333" height="1365.333" viewBox="0 0 1024.000000 1024.000000"><path d="M507.3 290.7c-10.7 17.6-22.6 37.2-46.8 76.8-13 21.4-24.7 40.6-25.9 42.5-4.8 7.4-6.1 9.5-6.6 10.5-.4.8-5.6 9.3-10 16.5-6.7 10.7-26.8 43.9-27.3 45-.4.8-3.4 5.7-6.7 10.9-3.3 5.1-6 9.5-6 9.8 0 .2-2 3.5-4.5 7.3s-4.5 7.1-4.5 7.4c0 .3-1.3 2.5-3 4.9-1.6 2.5-3 4.9-3 5.5 0 .6-.4 1.2-.8 1.4-.4.1-4.3 6.1-8.6 13.3-12.6 20.9-21.7 35.7-24.1 39.5-1.3 1.9-8.4 13.6-16 26-7.5 12.4-14.1 23.2-14.6 24-.5.8-7.2 11.8-14.9 24.5-7.6 12.6-14.3 23.5-14.8 24-.5.6-1.1 1.6-1.3 2.1-.2.6-3.8 6.5-7.9 13.3-4.1 6.7-8.2 13.4-9.1 14.9-.9 1.5-5.7 9.4-10.8 17.6-5 8.3-9.1 15.3-9.1 15.6 0 .3 21.3.5 47.3.5h47.2l.3-2.5c.2-2.1-.2-2.5-2.7-2.7-4.3-.3-8.8-2.9-9.7-5.5-1.8-5.5-.4-8.6 14.1-31.9 3.6-5.9 12.6-20.4 14-22.7.6-.9 4.6-7.5 9-14.5s8.9-14.3 10-16.1c1.1-1.8 4-6.5 6.5-10.5 2.5-3.9 5.7-9.1 7.1-11.4 1.4-2.3 5.5-8.9 9.1-14.7 3.6-5.8 9.3-14.9 12.6-20.3 3.4-5.4 6.2-10 6.2-10.3 0-.3.5-1 1.1-1.7.6-.7 16.9-26.8 36.2-58 37-59.8 36.8-59.3 43.4-70.3 2.4-3.8 6.9-11.2 10.2-16.4 3.3-5.2 9.2-14.8 13.2-21.3l7.2-11.8 7.2 11.8c3.9 6.5 14.5 23.9 23.5 38.8 9 14.8 19.6 32.3 23.7 38.9 4.1 6.5 7.2 12.1 6.9 12.4-.3.2-20.3.5-44.6.5h-44l-4.7 8.1c-2.6 4.4-5.6 9.7-6.6 11.6-1.1 1.9-4.2 7.3-7 12-2.7 4.7-5.8 9.8-6.7 11.5-9.3 16.2-13.4 23.1-14.1 23.9-.5.6-.2 1.7.8 2.8 1.5 1.7 1.8 1.6 6.9-2.8 3-2.5 6.6-4.8 8.1-5.1 2.1-.4 147.5-.8 150.3-.4.3.1 2.3 2.9 4.3 6.3 2.1 3.5 4.2 7 4.7 7.8 6.2 9.7 27 44.4 27 45.1 0 .5.5.9 1 .9.6 0 1 .5 1 1.1 0 .6.8 2.3 1.9 3.7 1 1.5 2.8 4.3 3.8 6.2 1.1 1.9 5.1 8.4 8.8 14.5 3.7 6 7.5 12.2 8.4 13.7.9 1.4 3.6 5.9 6.1 10 2.5 4 5 8.2 5.6 9.3.6 1.1 2.4 4 4 6.5s4.7 7.5 6.9 11.2c2.2 3.7 6.2 10.3 8.8 14.7 2.6 4.4 5 9.2 5.3 10.7 1.2 6.5-2.1 10.6-9.6 11.9-4.2.7-4.3.9-3.6 3.2.5 1.7 3 1.8 48.6 1.8 26.4 0 48-.2 48-.5 0-.2-6.6-11.4-14.7-24.8-8.2-13.3-15.5-25.5-16.4-27-.9-1.5-8-13.3-15.9-26.2-7.8-12.9-20.6-34.1-28.5-47-7.8-12.9-21.3-35.2-30-49.5-8.7-14.3-19.6-32.3-24.2-40-4.7-7.7-12.3-20.3-17-28-4.7-7.7-9.3-15.2-10.2-16.7-1.6-2.8-6.2-10.3-42.6-70.3-10.3-17.1-19.5-32.2-20.4-33.7-2.1-3.5-23.1-38-25.3-41.6-.9-1.5-2.4-4.1-3.3-5.9-.9-1.8-2.3-3.7-3.1-4.4-.8-.6-1.4-1.6-1.4-2.1 0-.8-1.4-3.1-7.7-13.4-.7-1-2.6-4.2-4.2-6.9-1.6-2.8-5.3-8.6-8-13-2.8-4.4-5.5-9-6.1-10.3-.5-1.2-1.1-2.2-1.3-2.2-.2 0-3.1 4.4-6.4 9.7z"/></svg>